<?xml version="1.0" standalone="no"?>
<!DOCTYPE svg PUBLIC "-//W3C//DTD SVG 20010904//EN"
 "http://www.w3.org/TR/2001/REC-SVG-20010904/DTD/svg10.dtd">
<svg version="1.0" xmlns="http://www.w3.org/2000/svg"
 width="596.000000pt" height="596.000000pt" viewBox="0 0 596.000000 596.000000"
 preserveAspectRatio="xMidYMid meet">
<metadata>
Created by potrace 1.14, written by Peter Selinger 2001-2017
</metadata>
<g transform="translate(0.000000,596.000000) scale(0.100000,-0.100000)"
fill="#000000" stroke="none">
<path d="M592 5949 c-210 -31 -412 -178 -506 -371 -83 -169 -76 71 -76 -2598
0 -2636 -5 -2430 64 -2575 71 -149 169 -250 319 -326 158 -80 -78 -73 2532
-77 1501 -2 2359 1 2412 7 169 21 294 82 418 206 66 66 89 97 127 175 25 52
52 120 60 150 20 82 19 4799 0 4880 -8 30 -34 98 -59 150 -38 79 -59 108 -132
180 -69 69 -103 95 -171 128 -173 85 88 77 -2565 78 -1372 1 -2386 -2 -2423
-7z m2470 -715 c63 -21 121 -74 145 -131 11 -26 85 -354 164 -728 l144 -680
83 -83 83 -84 703 -148 c387 -81 716 -155 732 -163 136 -71 176 -266 80 -392
-54 -70 -64 -73 -806 -231 l-695 -147 -83 -84 -83 -83 -145 -688 c-79 -378
-149 -702 -155 -721 -15 -44 -73 -107 -120 -132 -120 -61 -280 -15 -341 97
-20 38 -58 198 -174 744 l-148 695 -84 79 -83 80 -698 147 c-422 89 -713 155
-737 167 -82 42 -128 123 -128 227 0 59 4 79 29 124 28 51 84 103 124 116 9 3
330 72 712 153 l694 148 80 82 79 83 147 695 c81 383 155 714 165 736 49 108
193 164 316 122z"/>
<path d="M2932 5063 c-7 -2 -17 -14 -24 -26 -9 -18 -269 -1229 -265 -1234 1
-1 40 10 87 25 76 23 102 26 245 26 140 1 171 -2 243 -23 46 -13 84 -22 86
-20 6 7 -250 1204 -262 1225 -6 12 -19 24 -28 28 -18 7 -63 7 -82 -1z"/>
<path d="M2865 3656 c-152 -30 -253 -84 -360 -191 -139 -140 -195 -264 -203
-453 -7 -179 39 -326 145 -457 134 -165 324 -257 533 -258 177 -1 338 63 466
185 229 218 285 524 147 806 -45 91 -157 214 -249 272 -137 86 -330 125 -479
96z"/>
<path d="M3804 3305 c44 -114 51 -162 51 -325 0 -145 -3 -174 -23 -239 -13
-40 -21 -76 -18 -79 6 -5 1142 230 1204 250 57 17 74 95 31 134 -12 11 -215
58 -626 145 -334 71 -612 129 -617 129 -4 0 -5 -7 -2 -15z"/>
<path d="M1520 3174 c-637 -136 -630 -133 -630 -201 0 -36 26 -69 62 -78 79
-20 1203 -253 1206 -251 1 2 -10 43 -24 92 -25 80 -28 104 -28 244 0 137 3
164 26 238 l25 82 -26 -1 c-14 -1 -289 -57 -611 -125z"/>
<path d="M2660 2146 c0 -6 57 -281 126 -611 137 -653 135 -645 201 -645 70 0
66 -12 206 654 70 334 127 610 125 611 -2 2 -41 -8 -88 -21 -155 -46 -368 -43
-516 6 -36 11 -54 14 -54 6z"/>
</g>
</svg>
