<?xml version="1.0" standalone="no"?>
<!DOCTYPE svg PUBLIC "-//W3C//DTD SVG 20010904//EN"
 "http://www.w3.org/TR/2001/REC-SVG-20010904/DTD/svg10.dtd">
<svg version="1.0" xmlns="http://www.w3.org/2000/svg"
 width="1024.000000pt" height="1024.000000pt" viewBox="0 0 1024.000000 1024.000000"
 preserveAspectRatio="xMidYMid meet">
<metadata>
Created by potrace 1.14, written by Peter Selinger 2001-2017
</metadata>
<g transform="translate(0.000000,1024.000000) scale(0.100000,-0.100000)"
fill="#000000" stroke="none">
<path d="M865 10226 c-398 -62 -722 -358 -832 -761 l-28 -100 -3 -4180 c-2
-3063 0 -4205 8 -4273 57 -469 403 -827 867 -897 148 -22 8338 -22 8486 0 386
58 697 318 823 689 57 167 54 -109 54 4413 0 2901 -3 4185 -11 4240 -15 113
-74 280 -133 381 -37 63 -81 117 -161 197 -126 126 -220 187 -371 241 -193 69
157 64 -4449 63 -3282 -1 -4187 -4 -4250 -13z m6920 -2753 c86 -46 129 -118
129 -213 0 -95 -43 -167 -129 -213 l-40 -22 -2390 -5 c-2313 -5 -2391 -6
-2428 -24 -50 -25 -102 -87 -116 -139 -9 -31 -11 -275 -9 -904 l3 -861 30 -43
c17 -24 50 -57 74 -74 l43 -30 1651 -5 1652 -5 40 -22 c87 -47 135 -124 135
-215 0 -66 -26 -123 -75 -171 -73 -71 40 -67 -1749 -67 -1077 0 -1633 4 -1676
11 -159 25 -278 87 -395 204 -122 122 -181 241 -204 408 -15 107 -15 1687 0
1794 13 95 47 196 91 271 42 72 177 207 250 250 69 41 178 80 256 91 31 5
1128 8 2437 7 l2380 -1 40 -22z m-380 -1721 c205 -69 348 -190 435 -367 79
-159 74 -96 78 -1075 2 -616 0 -898 -8 -954 -47 -326 -305 -571 -638 -606 -64
-7 -882 -10 -2432 -8 l-2335 3 -55 31 c-38 22 -64 46 -85 79 -27 44 -30 57
-30 131 0 76 2 86 30 125 35 50 82 84 134 99 24 6 846 10 2396 10 l2360 0 50
24 c54 25 100 71 122 123 10 26 13 194 13 893 0 949 3 899 -63 968 -18 19 -50
43 -72 55 l-40 22 -1635 5 c-1580 5 -1637 6 -1665 24 -139 88 -164 248 -59
365 78 87 -79 80 1779 78 l1650 -2 70 -23z"/>
</g>
</svg>
