<svg xmlns="http://www.w3.org/2000/svg" viewBox="0 0 500 500"><defs><style>.cls-1{fill:#212529;}.cls-2{fill:#feb508;}</style></defs><g id="Layer_2" data-name="Layer 2"><g id="Icon"><rect class="cls-1" width="500" height="500" rx="50"/><path class="cls-2" d="M351.84,366.1H125.05a11.61,11.61,0,0,1-11.61-11.62h0a11.61,11.61,0,0,1,11.61-11.61H351.84a11.61,11.61,0,0,0,11.61-11.61V252.64A11.61,11.61,0,0,0,351.84,241H199.08a11.61,11.61,0,0,1-11.61-11.61h0a11.61,11.61,0,0,1,11.61-11.62H351.84a34.84,34.84,0,0,1,34.84,34.84v78.62A34.84,34.84,0,0,1,351.84,366.1Z"/><path class="cls-2" d="M302.44,282.2H148.16a34.84,34.84,0,0,1-34.84-34.84V168.74a34.84,34.84,0,0,1,34.84-34.84H375.07a11.61,11.61,0,0,1,11.61,11.62h0a11.61,11.61,0,0,1-11.61,11.61H148.16a11.61,11.61,0,0,0-11.61,11.61v78.62A11.61,11.61,0,0,0,148.16,259H302.44a11.61,11.61,0,0,1,11.62,11.61h0A11.62,11.62,0,0,1,302.44,282.2Z"/></g></g></svg>