<svg xmlns="http://www.w3.org/2000/svg" viewBox="0 0 595.28 595.28"><defs><style>.cls-1{fill:#181818;}.cls-2{fill:#fdb515;}</style></defs><g id="Layer_2" data-name="Layer 2"><g id="Icon-Grey"><rect class="cls-1" width="595.28" height="595.28" rx="69.76"/><path class="cls-2" d="M504.14,271.51,366.8,242.57a88.39,88.39,0,0,0-15.43-15.13l-29-136.3C319.43,77,307.13,70.49,297,70.49a25.85,25.85,0,0,0-25.45,20.65L242.57,228.49a88.68,88.68,0,0,0-15.13,15.42l-136.3,29a26,26,0,0,0,0,50.9L228.47,352.7a88.91,88.91,0,0,0,15.44,15.15l29,136.29c3,14.19,15.29,20.65,25.45,20.65a25.85,25.85,0,0,0,25.45-20.65L352.7,366.82a88.5,88.5,0,0,0,15.14-15.44l136.3-29c14.19-3,20.65-15.29,20.65-25.46A25.85,25.85,0,0,0,504.14,271.51Zm-215-176.66a8,8,0,0,1,15.66,0L330.2,215.43a88.66,88.66,0,0,0-66.6.61ZM94.85,306.15a8,8,0,0,1,0-15.66l120.58-25.4a88.7,88.7,0,0,0,.6,66.59Zm211.3,194.28a8,8,0,0,1-15.66,0l-25.4-120.57a88.64,88.64,0,0,0,66.59-.61Zm-8.51-134.36a68.43,68.43,0,1,1,68.43-68.43A68.5,68.5,0,0,1,297.64,366.07Zm202.79-61.28L379.86,330.2a88.66,88.66,0,0,0-.61-66.6l121.18,25.53a8,8,0,0,1,0,15.66Z"/></g></g></svg>